<mxfile host="65bd71144e">
    <diagram id="1aKDpMHRwP3hoVTJVf11" name="ページ1">
        <mxGraphModel dx="1216" dy="614" grid="1" gridSize="10" guides="1" tooltips="1" connect="1" arrows="1" fold="1" page="1" pageScale="1" pageWidth="827" pageHeight="1169" math="0" shadow="0">
            <root>
                <mxCell id="0"/>
                <mxCell id="1" parent="0"/>
                <mxCell id="10" value="&lt;h3 style=&quot;margin-top: 0px; margin-bottom: 0px; color: rgb(214, 214, 221); font-family: -apple-system, &amp;quot;system-ui&amp;quot;, &amp;quot;Hiragino Kaku Gothic Pro&amp;quot;, sans-serif; text-align: start; background-color: rgb(24, 24, 24);&quot;&gt;Users&lt;/h3&gt;" style="swimlane;fontStyle=0;childLayout=stackLayout;horizontal=1;startSize=30;horizontalStack=0;resizeParent=1;resizeParentMax=0;resizeLast=0;collapsible=1;marginBottom=0;whiteSpace=wrap;html=1;" parent="1" vertex="1">
                    <mxGeometry x="40" y="70" width="140" height="210" as="geometry"/>
                </mxCell>
                <mxCell id="11" value="&lt;span style=&quot;color: rgb(214, 214, 221); font-family: -apple-system, &amp;quot;system-ui&amp;quot;, &amp;quot;Hiragino Kaku Gothic Pro&amp;quot;, sans-serif; font-size: 13px; font-style: normal; font-variant-ligatures: normal; font-variant-caps: normal; font-weight: 700; letter-spacing: normal; orphans: 2; text-align: left; text-indent: 0px; text-transform: none; widows: 2; word-spacing: 0px; -webkit-text-stroke-width: 0px; background-color: rgb(24, 24, 24); text-decoration-thickness: initial; text-decoration-style: initial; text-decoration-color: initial;&quot;&gt;U&lt;/span&gt;&lt;span style=&quot;color: rgb(214, 214, 221); font-family: -apple-system, &amp;quot;system-ui&amp;quot;, &amp;quot;Hiragino Kaku Gothic Pro&amp;quot;, sans-serif; font-size: 13px; font-style: normal; font-variant-ligatures: normal; font-variant-caps: normal; font-weight: 700; letter-spacing: normal; orphans: 2; text-align: left; text-indent: 0px; text-transform: none; widows: 2; word-spacing: 0px; -webkit-text-stroke-width: 0px; background-color: rgb(24, 24, 24); text-decoration-thickness: initial; text-decoration-style: initial; text-decoration-color: initial;&quot;&gt;s&lt;/span&gt;&lt;span style=&quot;color: rgb(214, 214, 221); font-family: -apple-system, &amp;quot;system-ui&amp;quot;, &amp;quot;Hiragino Kaku Gothic Pro&amp;quot;, sans-serif; font-size: 13px; font-style: normal; font-variant-ligatures: normal; font-variant-caps: normal; font-weight: 700; letter-spacing: normal; orphans: 2; text-align: left; text-indent: 0px; text-transform: none; widows: 2; word-spacing: 0px; -webkit-text-stroke-width: 0px; background-color: rgb(24, 24, 24); text-decoration-thickness: initial; text-decoration-style: initial; text-decoration-color: initial;&quot;&gt;e&lt;/span&gt;&lt;span style=&quot;color: rgb(214, 214, 221); font-family: -apple-system, &amp;quot;system-ui&amp;quot;, &amp;quot;Hiragino Kaku Gothic Pro&amp;quot;, sans-serif; font-size: 13px; font-style: normal; font-variant-ligatures: normal; font-variant-caps: normal; font-weight: 700; letter-spacing: normal; orphans: 2; text-align: left; text-indent: 0px; text-transform: none; widows: 2; word-spacing: 0px; -webkit-text-stroke-width: 0px; background-color: rgb(24, 24, 24); text-decoration-thickness: initial; text-decoration-style: initial; text-decoration-color: initial;&quot;&gt;r&lt;/span&gt;&lt;span style=&quot;color: rgb(214, 214, 221); font-family: -apple-system, &amp;quot;system-ui&amp;quot;, &amp;quot;Hiragino Kaku Gothic Pro&amp;quot;, sans-serif; font-size: 13px; font-style: normal; font-variant-ligatures: normal; font-variant-caps: normal; font-weight: 700; letter-spacing: normal; orphans: 2; text-align: left; text-indent: 0px; text-transform: none; widows: 2; word-spacing: 0px; -webkit-text-stroke-width: 0px; background-color: rgb(24, 24, 24); text-decoration-thickness: initial; text-decoration-style: initial; text-decoration-color: initial;&quot;&gt;I&lt;/span&gt;&lt;span style=&quot;color: rgb(214, 214, 221); font-family: -apple-system, &amp;quot;system-ui&amp;quot;, &amp;quot;Hiragino Kaku Gothic Pro&amp;quot;, sans-serif; font-size: 13px; font-style: normal; font-variant-ligatures: normal; font-variant-caps: normal; font-weight: 700; letter-spacing: normal; orphans: 2; text-align: left; text-indent: 0px; text-transform: none; widows: 2; word-spacing: 0px; -webkit-text-stroke-width: 0px; background-color: rgb(24, 24, 24); text-decoration-thickness: initial; text-decoration-style: initial; text-decoration-color: initial;&quot;&gt;D(pk)&lt;/span&gt;" style="text;strokeColor=none;fillColor=none;align=left;verticalAlign=middle;spacingLeft=4;spacingRight=4;overflow=hidden;points=[[0,0.5],[1,0.5]];portConstraint=eastwest;rotatable=0;whiteSpace=wrap;html=1;" parent="10" vertex="1">
                    <mxGeometry y="30" width="140" height="30" as="geometry"/>
                </mxCell>
                <mxCell id="12" value="&lt;span style=&quot;color: rgb(214, 214, 221); font-family: -apple-system, &amp;quot;system-ui&amp;quot;, &amp;quot;Hiragino Kaku Gothic Pro&amp;quot;, sans-serif; font-size: 13px; font-weight: 700; background-color: rgb(24, 24, 24);&quot;&gt;U&lt;/span&gt;&lt;span style=&quot;color: rgb(214, 214, 221); font-family: -apple-system, &amp;quot;system-ui&amp;quot;, &amp;quot;Hiragino Kaku Gothic Pro&amp;quot;, sans-serif; font-size: 13px; font-weight: 700; background-color: rgb(24, 24, 24);&quot;&gt;s&lt;/span&gt;&lt;span style=&quot;color: rgb(214, 214, 221); font-family: -apple-system, &amp;quot;system-ui&amp;quot;, &amp;quot;Hiragino Kaku Gothic Pro&amp;quot;, sans-serif; font-size: 13px; font-weight: 700; background-color: rgb(24, 24, 24);&quot;&gt;e&lt;/span&gt;&lt;span style=&quot;color: rgb(214, 214, 221); font-family: -apple-system, &amp;quot;system-ui&amp;quot;, &amp;quot;Hiragino Kaku Gothic Pro&amp;quot;, sans-serif; font-size: 13px; font-weight: 700; background-color: rgb(24, 24, 24);&quot;&gt;r&lt;/span&gt;&lt;span style=&quot;color: rgb(214, 214, 221); font-family: -apple-system, &amp;quot;system-ui&amp;quot;, &amp;quot;Hiragino Kaku Gothic Pro&amp;quot;, sans-serif; font-size: 13px; font-weight: 700; background-color: rgb(24, 24, 24);&quot;&gt;n&lt;/span&gt;&lt;span style=&quot;color: rgb(214, 214, 221); font-family: -apple-system, &amp;quot;system-ui&amp;quot;, &amp;quot;Hiragino Kaku Gothic Pro&amp;quot;, sans-serif; font-size: 13px; font-weight: 700; background-color: rgb(24, 24, 24);&quot;&gt;a&lt;/span&gt;&lt;span style=&quot;color: rgb(214, 214, 221); font-family: -apple-system, &amp;quot;system-ui&amp;quot;, &amp;quot;Hiragino Kaku Gothic Pro&amp;quot;, sans-serif; font-size: 13px; font-weight: 700; background-color: rgb(24, 24, 24);&quot;&gt;m&lt;/span&gt;&lt;span style=&quot;color: rgb(214, 214, 221); font-family: -apple-system, &amp;quot;system-ui&amp;quot;, &amp;quot;Hiragino Kaku Gothic Pro&amp;quot;, sans-serif; font-size: 13px; font-weight: 700; background-color: rgb(24, 24, 24);&quot;&gt;e&lt;/span&gt;" style="text;strokeColor=none;fillColor=none;align=left;verticalAlign=middle;spacingLeft=4;spacingRight=4;overflow=hidden;points=[[0,0.5],[1,0.5]];portConstraint=eastwest;rotatable=0;whiteSpace=wrap;html=1;" parent="10" vertex="1">
                    <mxGeometry y="60" width="140" height="30" as="geometry"/>
                </mxCell>
                <mxCell id="18" value="&lt;p style=&quot;margin: 0px; font-variant-numeric: normal; font-variant-east-asian: normal; font-variant-alternates: normal; font-kerning: auto; font-optical-sizing: auto; font-feature-settings: normal; font-variation-settings: normal; font-stretch: normal; font-size: 13px; line-height: normal; font-family: &amp;quot;Helvetica Neue&amp;quot;;&quot; class=&quot;p1&quot;&gt;&lt;b style=&quot;&quot;&gt;&lt;font color=&quot;#ffffff&quot;&gt;Email&lt;/font&gt;&lt;/b&gt;&lt;/p&gt;" style="text;strokeColor=none;fillColor=none;align=left;verticalAlign=middle;spacingLeft=4;spacingRight=4;overflow=hidden;points=[[0,0.5],[1,0.5]];portConstraint=eastwest;rotatable=0;whiteSpace=wrap;html=1;" parent="10" vertex="1">
                    <mxGeometry y="90" width="140" height="30" as="geometry"/>
                </mxCell>
                <mxCell id="13" value="&lt;p style=&quot;margin: 0px; font-variant-numeric: normal; font-variant-east-asian: normal; font-variant-alternates: normal; font-kerning: auto; font-optical-sizing: auto; font-feature-settings: normal; font-variation-settings: normal; font-stretch: normal; font-size: 13px; line-height: normal; font-family: &amp;quot;Helvetica Neue&amp;quot;;&quot; class=&quot;p1&quot;&gt;&lt;b style=&quot;&quot;&gt;&lt;font color=&quot;#ffffff&quot;&gt;AdminID&lt;/font&gt;&lt;/b&gt;&lt;/p&gt;" style="text;strokeColor=none;fillColor=none;align=left;verticalAlign=middle;spacingLeft=4;spacingRight=4;overflow=hidden;points=[[0,0.5],[1,0.5]];portConstraint=eastwest;rotatable=0;whiteSpace=wrap;html=1;" parent="10" vertex="1">
                    <mxGeometry y="120" width="140" height="30" as="geometry"/>
                </mxCell>
                <mxCell id="34" value="&lt;p style=&quot;margin: 0px; font-variant-numeric: normal; font-variant-east-asian: normal; font-variant-alternates: normal; font-kerning: auto; font-optical-sizing: auto; font-feature-settings: normal; font-variation-settings: normal; font-stretch: normal; font-size: 13px; line-height: normal; font-family: &amp;quot;Helvetica Neue&amp;quot;;&quot; class=&quot;p1&quot;&gt;&lt;font color=&quot;#ffffff&quot;&gt;&lt;b&gt;RoomID&lt;/b&gt;&lt;/font&gt;&lt;/p&gt;" style="text;strokeColor=none;fillColor=none;align=left;verticalAlign=middle;spacingLeft=4;spacingRight=4;overflow=hidden;points=[[0,0.5],[1,0.5]];portConstraint=eastwest;rotatable=0;whiteSpace=wrap;html=1;" parent="10" vertex="1">
                    <mxGeometry y="150" width="140" height="30" as="geometry"/>
                </mxCell>
                <mxCell id="35" value="&lt;p style=&quot;margin: 0px; font-variant-numeric: normal; font-variant-east-asian: normal; font-variant-alternates: normal; font-kerning: auto; font-optical-sizing: auto; font-feature-settings: normal; font-variation-settings: normal; font-stretch: normal; font-size: 13px; line-height: normal; font-family: &amp;quot;Helvetica Neue&amp;quot;;&quot; class=&quot;p1&quot;&gt;&lt;b style=&quot;&quot;&gt;&lt;font color=&quot;#ffffff&quot;&gt;AdminID&lt;/font&gt;&lt;/b&gt;&lt;/p&gt;" style="text;strokeColor=none;fillColor=none;align=left;verticalAlign=middle;spacingLeft=4;spacingRight=4;overflow=hidden;points=[[0,0.5],[1,0.5]];portConstraint=eastwest;rotatable=0;whiteSpace=wrap;html=1;" parent="10" vertex="1">
                    <mxGeometry y="180" width="140" height="30" as="geometry"/>
                </mxCell>
                <mxCell id="14" value="&lt;span style=&quot;color: rgb(214, 214, 221); font-family: -apple-system, &amp;quot;system-ui&amp;quot;, &amp;quot;Hiragino Kaku Gothic Pro&amp;quot;, sans-serif; font-size: 13px; font-weight: 700; text-align: left; background-color: rgb(24, 24, 24);&quot;&gt;A&lt;/span&gt;&lt;span style=&quot;color: rgb(214, 214, 221); font-family: -apple-system, &amp;quot;system-ui&amp;quot;, &amp;quot;Hiragino Kaku Gothic Pro&amp;quot;, sans-serif; font-size: 13px; font-weight: 700; text-align: left; background-color: rgb(24, 24, 24);&quot;&gt;u&lt;/span&gt;&lt;span style=&quot;color: rgb(214, 214, 221); font-family: -apple-system, &amp;quot;system-ui&amp;quot;, &amp;quot;Hiragino Kaku Gothic Pro&amp;quot;, sans-serif; font-size: 13px; font-weight: 700; text-align: left; background-color: rgb(24, 24, 24);&quot;&gt;t&lt;/span&gt;&lt;span style=&quot;color: rgb(214, 214, 221); font-family: -apple-system, &amp;quot;system-ui&amp;quot;, &amp;quot;Hiragino Kaku Gothic Pro&amp;quot;, sans-serif; font-size: 13px; font-weight: 700; text-align: left; background-color: rgb(24, 24, 24);&quot;&gt;h&lt;/span&gt;&lt;span style=&quot;color: rgb(214, 214, 221); font-family: -apple-system, &amp;quot;system-ui&amp;quot;, &amp;quot;Hiragino Kaku Gothic Pro&amp;quot;, sans-serif; font-size: 13px; font-weight: 700; text-align: left; background-color: rgb(24, 24, 24);&quot;&gt;o&lt;/span&gt;&lt;span style=&quot;color: rgb(214, 214, 221); font-family: -apple-system, &amp;quot;system-ui&amp;quot;, &amp;quot;Hiragino Kaku Gothic Pro&amp;quot;, sans-serif; font-size: 13px; font-weight: 700; text-align: left; background-color: rgb(24, 24, 24);&quot;&gt;r&lt;/span&gt;&lt;span style=&quot;color: rgb(214, 214, 221); font-family: -apple-system, &amp;quot;system-ui&amp;quot;, &amp;quot;Hiragino Kaku Gothic Pro&amp;quot;, sans-serif; font-size: 13px; font-weight: 700; text-align: left; background-color: rgb(24, 24, 24);&quot;&gt;i&lt;/span&gt;&lt;span style=&quot;color: rgb(214, 214, 221); font-family: -apple-system, &amp;quot;system-ui&amp;quot;, &amp;quot;Hiragino Kaku Gothic Pro&amp;quot;, sans-serif; font-size: 13px; font-weight: 700; text-align: left; background-color: rgb(24, 24, 24);&quot;&gt;t&lt;/span&gt;&lt;span style=&quot;color: rgb(214, 214, 221); font-family: -apple-system, &amp;quot;system-ui&amp;quot;, &amp;quot;Hiragino Kaku Gothic Pro&amp;quot;, sans-serif; font-size: 13px; font-weight: 700; text-align: left; background-color: rgb(24, 24, 24);&quot;&gt;y&lt;/span&gt;" style="swimlane;fontStyle=0;childLayout=stackLayout;horizontal=1;startSize=30;horizontalStack=0;resizeParent=1;resizeParentMax=0;resizeLast=0;collapsible=1;marginBottom=0;whiteSpace=wrap;html=1;" parent="1" vertex="1">
                    <mxGeometry x="40" y="320" width="140" height="120" as="geometry"/>
                </mxCell>
                <mxCell id="16" value="&lt;span style=&quot;color: rgb(214, 214, 221); font-family: -apple-system, &amp;quot;system-ui&amp;quot;, &amp;quot;Hiragino Kaku Gothic Pro&amp;quot;, sans-serif; font-size: 13px; font-weight: 700; background-color: rgb(24, 24, 24);&quot;&gt;A&lt;/span&gt;&lt;span style=&quot;color: rgb(214, 214, 221); font-family: -apple-system, &amp;quot;system-ui&amp;quot;, &amp;quot;Hiragino Kaku Gothic Pro&amp;quot;, sans-serif; font-size: 13px; font-weight: 700; background-color: rgb(24, 24, 24);&quot;&gt;u&lt;/span&gt;&lt;span style=&quot;color: rgb(214, 214, 221); font-family: -apple-system, &amp;quot;system-ui&amp;quot;, &amp;quot;Hiragino Kaku Gothic Pro&amp;quot;, sans-serif; font-size: 13px; font-weight: 700; background-color: rgb(24, 24, 24);&quot;&gt;t&lt;/span&gt;&lt;span style=&quot;color: rgb(214, 214, 221); font-family: -apple-system, &amp;quot;system-ui&amp;quot;, &amp;quot;Hiragino Kaku Gothic Pro&amp;quot;, sans-serif; font-size: 13px; font-weight: 700; background-color: rgb(24, 24, 24);&quot;&gt;h&lt;/span&gt;&lt;span style=&quot;color: rgb(214, 214, 221); font-family: -apple-system, &amp;quot;system-ui&amp;quot;, &amp;quot;Hiragino Kaku Gothic Pro&amp;quot;, sans-serif; font-size: 13px; font-weight: 700; background-color: rgb(24, 24, 24);&quot;&gt;o&lt;/span&gt;&lt;span style=&quot;color: rgb(214, 214, 221); font-family: -apple-system, &amp;quot;system-ui&amp;quot;, &amp;quot;Hiragino Kaku Gothic Pro&amp;quot;, sans-serif; font-size: 13px; font-weight: 700; background-color: rgb(24, 24, 24);&quot;&gt;r&lt;/span&gt;&lt;span style=&quot;color: rgb(214, 214, 221); font-family: -apple-system, &amp;quot;system-ui&amp;quot;, &amp;quot;Hiragino Kaku Gothic Pro&amp;quot;, sans-serif; font-size: 13px; font-weight: 700; background-color: rgb(24, 24, 24);&quot;&gt;i&lt;/span&gt;&lt;span style=&quot;color: rgb(214, 214, 221); font-family: -apple-system, &amp;quot;system-ui&amp;quot;, &amp;quot;Hiragino Kaku Gothic Pro&amp;quot;, sans-serif; font-size: 13px; font-weight: 700; background-color: rgb(24, 24, 24);&quot;&gt;t&lt;/span&gt;&lt;span style=&quot;color: rgb(214, 214, 221); font-family: -apple-system, &amp;quot;system-ui&amp;quot;, &amp;quot;Hiragino Kaku Gothic Pro&amp;quot;, sans-serif; font-size: 13px; font-weight: 700; background-color: rgb(24, 24, 24);&quot;&gt;y&lt;/span&gt;&lt;span style=&quot;color: rgb(214, 214, 221); font-family: -apple-system, &amp;quot;system-ui&amp;quot;, &amp;quot;Hiragino Kaku Gothic Pro&amp;quot;, sans-serif; font-size: 13px; font-weight: 700; background-color: rgb(24, 24, 24);&quot;&gt;I&lt;/span&gt;&lt;span style=&quot;color: rgb(214, 214, 221); font-family: -apple-system, &amp;quot;system-ui&amp;quot;, &amp;quot;Hiragino Kaku Gothic Pro&amp;quot;, sans-serif; font-size: 13px; font-weight: 700; background-color: rgb(24, 24, 24);&quot;&gt;D&lt;/span&gt;&lt;span style=&quot;color: rgb(214, 214, 221); font-family: -apple-system, &amp;quot;system-ui&amp;quot;, &amp;quot;Hiragino Kaku Gothic Pro&amp;quot;, sans-serif; font-size: 13px; font-weight: 700; background-color: rgb(24, 24, 24);&quot;&gt;(pk)&lt;/span&gt;" style="text;strokeColor=none;fillColor=none;align=left;verticalAlign=middle;spacingLeft=4;spacingRight=4;overflow=hidden;points=[[0,0.5],[1,0.5]];portConstraint=eastwest;rotatable=0;whiteSpace=wrap;html=1;" parent="14" vertex="1">
                    <mxGeometry y="30" width="140" height="30" as="geometry"/>
                </mxCell>
                <mxCell id="15" value="&lt;span style=&quot;color: rgb(214, 214, 221); font-family: -apple-system, &amp;quot;system-ui&amp;quot;, &amp;quot;Hiragino Kaku Gothic Pro&amp;quot;, sans-serif; font-size: 13px; font-weight: 700; background-color: rgb(24, 24, 24);&quot;&gt;A&lt;/span&gt;&lt;span style=&quot;color: rgb(214, 214, 221); font-family: -apple-system, &amp;quot;system-ui&amp;quot;, &amp;quot;Hiragino Kaku Gothic Pro&amp;quot;, sans-serif; font-size: 13px; font-weight: 700; background-color: rgb(24, 24, 24);&quot;&gt;u&lt;/span&gt;&lt;span style=&quot;color: rgb(214, 214, 221); font-family: -apple-system, &amp;quot;system-ui&amp;quot;, &amp;quot;Hiragino Kaku Gothic Pro&amp;quot;, sans-serif; font-size: 13px; font-weight: 700; background-color: rgb(24, 24, 24);&quot;&gt;t&lt;/span&gt;&lt;span style=&quot;color: rgb(214, 214, 221); font-family: -apple-system, &amp;quot;system-ui&amp;quot;, &amp;quot;Hiragino Kaku Gothic Pro&amp;quot;, sans-serif; font-size: 13px; font-weight: 700; background-color: rgb(24, 24, 24);&quot;&gt;h&lt;/span&gt;&lt;span style=&quot;color: rgb(214, 214, 221); font-family: -apple-system, &amp;quot;system-ui&amp;quot;, &amp;quot;Hiragino Kaku Gothic Pro&amp;quot;, sans-serif; font-size: 13px; font-weight: 700; background-color: rgb(24, 24, 24);&quot;&gt;o&lt;/span&gt;&lt;span style=&quot;color: rgb(214, 214, 221); font-family: -apple-system, &amp;quot;system-ui&amp;quot;, &amp;quot;Hiragino Kaku Gothic Pro&amp;quot;, sans-serif; font-size: 13px; font-weight: 700; background-color: rgb(24, 24, 24);&quot;&gt;r&lt;/span&gt;&lt;span style=&quot;color: rgb(214, 214, 221); font-family: -apple-system, &amp;quot;system-ui&amp;quot;, &amp;quot;Hiragino Kaku Gothic Pro&amp;quot;, sans-serif; font-size: 13px; font-weight: 700; background-color: rgb(24, 24, 24);&quot;&gt;i&lt;/span&gt;&lt;span style=&quot;color: rgb(214, 214, 221); font-family: -apple-system, &amp;quot;system-ui&amp;quot;, &amp;quot;Hiragino Kaku Gothic Pro&amp;quot;, sans-serif; font-size: 13px; font-weight: 700; background-color: rgb(24, 24, 24);&quot;&gt;t&lt;/span&gt;&lt;span style=&quot;color: rgb(214, 214, 221); font-family: -apple-system, &amp;quot;system-ui&amp;quot;, &amp;quot;Hiragino Kaku Gothic Pro&amp;quot;, sans-serif; font-size: 13px; font-weight: 700; background-color: rgb(24, 24, 24);&quot;&gt;y&lt;/span&gt;&lt;span style=&quot;color: rgb(214, 214, 221); font-family: -apple-system, &amp;quot;system-ui&amp;quot;, &amp;quot;Hiragino Kaku Gothic Pro&amp;quot;, sans-serif; font-size: 13px; font-weight: 700; background-color: rgb(24, 24, 24);&quot;&gt;L&lt;/span&gt;&lt;span style=&quot;color: rgb(214, 214, 221); font-family: -apple-system, &amp;quot;system-ui&amp;quot;, &amp;quot;Hiragino Kaku Gothic Pro&amp;quot;, sans-serif; font-size: 13px; font-weight: 700; background-color: rgb(24, 24, 24);&quot;&gt;e&lt;/span&gt;&lt;span style=&quot;color: rgb(214, 214, 221); font-family: -apple-system, &amp;quot;system-ui&amp;quot;, &amp;quot;Hiragino Kaku Gothic Pro&amp;quot;, sans-serif; font-size: 13px; font-weight: 700; background-color: rgb(24, 24, 24);&quot;&gt;v&lt;/span&gt;&lt;span style=&quot;color: rgb(214, 214, 221); font-family: -apple-system, &amp;quot;system-ui&amp;quot;, &amp;quot;Hiragino Kaku Gothic Pro&amp;quot;, sans-serif; font-size: 13px; font-weight: 700; background-color: rgb(24, 24, 24);&quot;&gt;e&lt;/span&gt;&lt;span style=&quot;color: rgb(214, 214, 221); font-family: -apple-system, &amp;quot;system-ui&amp;quot;, &amp;quot;Hiragino Kaku Gothic Pro&amp;quot;, sans-serif; font-size: 13px; font-weight: 700; background-color: rgb(24, 24, 24);&quot;&gt;l&lt;/span&gt;" style="text;strokeColor=none;fillColor=none;align=left;verticalAlign=middle;spacingLeft=4;spacingRight=4;overflow=hidden;points=[[0,0.5],[1,0.5]];portConstraint=eastwest;rotatable=0;whiteSpace=wrap;html=1;" parent="14" vertex="1">
                    <mxGeometry y="60" width="140" height="30" as="geometry"/>
                </mxCell>
                <mxCell id="17" value="&lt;span style=&quot;color: rgb(214, 214, 221); font-family: -apple-system, &amp;quot;system-ui&amp;quot;, &amp;quot;Hiragino Kaku Gothic Pro&amp;quot;, sans-serif; font-size: 13px; font-weight: 700; background-color: rgb(24, 24, 24);&quot;&gt;D&lt;/span&gt;&lt;span style=&quot;color: rgb(214, 214, 221); font-family: -apple-system, &amp;quot;system-ui&amp;quot;, &amp;quot;Hiragino Kaku Gothic Pro&amp;quot;, sans-serif; font-size: 13px; font-weight: 700; background-color: rgb(24, 24, 24);&quot;&gt;e&lt;/span&gt;&lt;span style=&quot;color: rgb(214, 214, 221); font-family: -apple-system, &amp;quot;system-ui&amp;quot;, &amp;quot;Hiragino Kaku Gothic Pro&amp;quot;, sans-serif; font-size: 13px; font-weight: 700; background-color: rgb(24, 24, 24);&quot;&gt;s&lt;/span&gt;&lt;span style=&quot;color: rgb(214, 214, 221); font-family: -apple-system, &amp;quot;system-ui&amp;quot;, &amp;quot;Hiragino Kaku Gothic Pro&amp;quot;, sans-serif; font-size: 13px; font-weight: 700; background-color: rgb(24, 24, 24);&quot;&gt;c&lt;/span&gt;&lt;span style=&quot;color: rgb(214, 214, 221); font-family: -apple-system, &amp;quot;system-ui&amp;quot;, &amp;quot;Hiragino Kaku Gothic Pro&amp;quot;, sans-serif; font-size: 13px; font-weight: 700; background-color: rgb(24, 24, 24);&quot;&gt;r&lt;/span&gt;&lt;span style=&quot;color: rgb(214, 214, 221); font-family: -apple-system, &amp;quot;system-ui&amp;quot;, &amp;quot;Hiragino Kaku Gothic Pro&amp;quot;, sans-serif; font-size: 13px; font-weight: 700; background-color: rgb(24, 24, 24);&quot;&gt;i&lt;/span&gt;&lt;span style=&quot;color: rgb(214, 214, 221); font-family: -apple-system, &amp;quot;system-ui&amp;quot;, &amp;quot;Hiragino Kaku Gothic Pro&amp;quot;, sans-serif; font-size: 13px; font-weight: 700; background-color: rgb(24, 24, 24);&quot;&gt;p&lt;/span&gt;&lt;span style=&quot;color: rgb(214, 214, 221); font-family: -apple-system, &amp;quot;system-ui&amp;quot;, &amp;quot;Hiragino Kaku Gothic Pro&amp;quot;, sans-serif; font-size: 13px; font-weight: 700; background-color: rgb(24, 24, 24);&quot;&gt;t&lt;/span&gt;&lt;span style=&quot;color: rgb(214, 214, 221); font-family: -apple-system, &amp;quot;system-ui&amp;quot;, &amp;quot;Hiragino Kaku Gothic Pro&amp;quot;, sans-serif; font-size: 13px; font-weight: 700; background-color: rgb(24, 24, 24);&quot;&gt;i&lt;/span&gt;&lt;span style=&quot;color: rgb(214, 214, 221); font-family: -apple-system, &amp;quot;system-ui&amp;quot;, &amp;quot;Hiragino Kaku Gothic Pro&amp;quot;, sans-serif; font-size: 13px; font-weight: 700; background-color: rgb(24, 24, 24);&quot;&gt;o&lt;/span&gt;&lt;span style=&quot;color: rgb(214, 214, 221); font-family: -apple-system, &amp;quot;system-ui&amp;quot;, &amp;quot;Hiragino Kaku Gothic Pro&amp;quot;, sans-serif; font-size: 13px; font-weight: 700; background-color: rgb(24, 24, 24);&quot;&gt;n&lt;/span&gt;" style="text;strokeColor=none;fillColor=none;align=left;verticalAlign=middle;spacingLeft=4;spacingRight=4;overflow=hidden;points=[[0,0.5],[1,0.5]];portConstraint=eastwest;rotatable=0;whiteSpace=wrap;html=1;" parent="14" vertex="1">
                    <mxGeometry y="90" width="140" height="30" as="geometry"/>
                </mxCell>
                <mxCell id="29" value="&lt;h3 style=&quot;margin-top: 0px; margin-bottom: 0px; color: rgb(214, 214, 221); font-family: -apple-system, &amp;quot;system-ui&amp;quot;, &amp;quot;Hiragino Kaku Gothic Pro&amp;quot;, sans-serif; text-align: start; background-color: rgb(24, 24, 24);&quot;&gt;Users&lt;/h3&gt;" style="swimlane;fontStyle=0;childLayout=stackLayout;horizontal=1;startSize=30;horizontalStack=0;resizeParent=1;resizeParentMax=0;resizeLast=0;collapsible=1;marginBottom=0;whiteSpace=wrap;html=1;" parent="1" vertex="1">
                    <mxGeometry x="190" y="70" width="140" height="90" as="geometry"/>
                </mxCell>
                <mxCell id="30" value="&lt;span style=&quot;color: rgb(214, 214, 221); font-family: -apple-system, &amp;quot;system-ui&amp;quot;, &amp;quot;Hiragino Kaku Gothic Pro&amp;quot;, sans-serif; font-size: 13px; font-style: normal; font-variant-ligatures: normal; font-variant-caps: normal; font-weight: 700; letter-spacing: normal; orphans: 2; text-align: left; text-indent: 0px; text-transform: none; widows: 2; word-spacing: 0px; -webkit-text-stroke-width: 0px; background-color: rgb(24, 24, 24); text-decoration-thickness: initial; text-decoration-style: initial; text-decoration-color: initial;&quot;&gt;AdminID(pk)&lt;/span&gt;" style="text;strokeColor=none;fillColor=none;align=left;verticalAlign=middle;spacingLeft=4;spacingRight=4;overflow=hidden;points=[[0,0.5],[1,0.5]];portConstraint=eastwest;rotatable=0;whiteSpace=wrap;html=1;" parent="29" vertex="1">
                    <mxGeometry y="30" width="140" height="30" as="geometry"/>
                </mxCell>
                <mxCell id="31" value="&lt;span style=&quot;color: rgb(214, 214, 221); font-family: -apple-system, &amp;quot;system-ui&amp;quot;, &amp;quot;Hiragino Kaku Gothic Pro&amp;quot;, sans-serif; font-size: 13px; font-weight: 700; background-color: rgb(24, 24, 24);&quot;&gt;A&lt;/span&gt;&lt;span style=&quot;color: rgb(214, 214, 221); font-family: -apple-system, &amp;quot;system-ui&amp;quot;, &amp;quot;Hiragino Kaku Gothic Pro&amp;quot;, sans-serif; font-size: 13px; font-weight: 700; background-color: rgb(24, 24, 24);&quot;&gt;d&lt;/span&gt;&lt;span style=&quot;color: rgb(214, 214, 221); font-family: -apple-system, &amp;quot;system-ui&amp;quot;, &amp;quot;Hiragino Kaku Gothic Pro&amp;quot;, sans-serif; font-size: 13px; font-weight: 700; background-color: rgb(24, 24, 24);&quot;&gt;m&lt;/span&gt;&lt;span style=&quot;color: rgb(214, 214, 221); font-family: -apple-system, &amp;quot;system-ui&amp;quot;, &amp;quot;Hiragino Kaku Gothic Pro&amp;quot;, sans-serif; font-size: 13px; font-weight: 700; background-color: rgb(24, 24, 24);&quot;&gt;i&lt;/span&gt;&lt;span style=&quot;color: rgb(214, 214, 221); font-family: -apple-system, &amp;quot;system-ui&amp;quot;, &amp;quot;Hiragino Kaku Gothic Pro&amp;quot;, sans-serif; font-size: 13px; font-weight: 700; background-color: rgb(24, 24, 24);&quot;&gt;n&lt;/span&gt;&lt;span style=&quot;color: rgb(214, 214, 221); font-family: -apple-system, &amp;quot;system-ui&amp;quot;, &amp;quot;Hiragino Kaku Gothic Pro&amp;quot;, sans-serif; font-size: 13px; font-weight: 700; background-color: rgb(24, 24, 24);&quot;&gt;N&lt;/span&gt;&lt;span style=&quot;color: rgb(214, 214, 221); font-family: -apple-system, &amp;quot;system-ui&amp;quot;, &amp;quot;Hiragino Kaku Gothic Pro&amp;quot;, sans-serif; font-size: 13px; font-weight: 700; background-color: rgb(24, 24, 24);&quot;&gt;a&lt;/span&gt;&lt;span style=&quot;color: rgb(214, 214, 221); font-family: -apple-system, &amp;quot;system-ui&amp;quot;, &amp;quot;Hiragino Kaku Gothic Pro&amp;quot;, sans-serif; font-size: 13px; font-weight: 700; background-color: rgb(24, 24, 24);&quot;&gt;m&lt;/span&gt;&lt;span style=&quot;color: rgb(214, 214, 221); font-family: -apple-system, &amp;quot;system-ui&amp;quot;, &amp;quot;Hiragino Kaku Gothic Pro&amp;quot;, sans-serif; font-size: 13px; font-weight: 700; background-color: rgb(24, 24, 24);&quot;&gt;e&lt;/span&gt;" style="text;strokeColor=none;fillColor=none;align=left;verticalAlign=middle;spacingLeft=4;spacingRight=4;overflow=hidden;points=[[0,0.5],[1,0.5]];portConstraint=eastwest;rotatable=0;whiteSpace=wrap;html=1;" parent="29" vertex="1">
                    <mxGeometry y="60" width="140" height="30" as="geometry"/>
                </mxCell>
                <mxCell id="36" value="&lt;h3 style=&quot;margin-top: 0px; margin-bottom: 0px; color: rgb(214, 214, 221); font-family: -apple-system, &amp;quot;system-ui&amp;quot;, &amp;quot;Hiragino Kaku Gothic Pro&amp;quot;, sans-serif; text-align: start; background-color: rgb(24, 24, 24);&quot;&gt;Rooms&lt;/h3&gt;" style="swimlane;fontStyle=0;childLayout=stackLayout;horizontal=1;startSize=30;horizontalStack=0;resizeParent=1;resizeParentMax=0;resizeLast=0;collapsible=1;marginBottom=0;whiteSpace=wrap;html=1;" parent="1" vertex="1">
                    <mxGeometry x="344" y="70" width="140" height="120" as="geometry"/>
                </mxCell>
                <mxCell id="37" value="&lt;span style=&quot;color: rgb(214, 214, 221); font-family: -apple-system, &amp;quot;system-ui&amp;quot;, &amp;quot;Hiragino Kaku Gothic Pro&amp;quot;, sans-serif; font-size: 13px; font-style: normal; font-variant-ligatures: normal; font-variant-caps: normal; font-weight: 700; letter-spacing: normal; orphans: 2; text-align: left; text-indent: 0px; text-transform: none; widows: 2; word-spacing: 0px; -webkit-text-stroke-width: 0px; background-color: rgb(24, 24, 24); text-decoration-thickness: initial; text-decoration-style: initial; text-decoration-color: initial;&quot;&gt;RoomID(pk)&lt;/span&gt;" style="text;strokeColor=none;fillColor=none;align=left;verticalAlign=middle;spacingLeft=4;spacingRight=4;overflow=hidden;points=[[0,0.5],[1,0.5]];portConstraint=eastwest;rotatable=0;whiteSpace=wrap;html=1;" parent="36" vertex="1">
                    <mxGeometry y="30" width="140" height="30" as="geometry"/>
                </mxCell>
                <mxCell id="38" value="&lt;span style=&quot;color: rgb(214, 214, 221); font-family: -apple-system, &amp;quot;system-ui&amp;quot;, &amp;quot;Hiragino Kaku Gothic Pro&amp;quot;, sans-serif; font-size: 13px; font-weight: 700; background-color: rgb(24, 24, 24);&quot;&gt;R&lt;/span&gt;&lt;span style=&quot;color: rgb(214, 214, 221); font-family: -apple-system, &amp;quot;system-ui&amp;quot;, &amp;quot;Hiragino Kaku Gothic Pro&amp;quot;, sans-serif; font-size: 13px; font-weight: 700; background-color: rgb(24, 24, 24);&quot;&gt;o&lt;/span&gt;&lt;span style=&quot;color: rgb(214, 214, 221); font-family: -apple-system, &amp;quot;system-ui&amp;quot;, &amp;quot;Hiragino Kaku Gothic Pro&amp;quot;, sans-serif; font-size: 13px; font-weight: 700; background-color: rgb(24, 24, 24);&quot;&gt;o&lt;/span&gt;&lt;span style=&quot;color: rgb(214, 214, 221); font-family: -apple-system, &amp;quot;system-ui&amp;quot;, &amp;quot;Hiragino Kaku Gothic Pro&amp;quot;, sans-serif; font-size: 13px; font-weight: 700; background-color: rgb(24, 24, 24);&quot;&gt;m&lt;/span&gt;&lt;span style=&quot;color: rgb(214, 214, 221); font-family: -apple-system, &amp;quot;system-ui&amp;quot;, &amp;quot;Hiragino Kaku Gothic Pro&amp;quot;, sans-serif; font-size: 13px; font-weight: 700; background-color: rgb(24, 24, 24);&quot;&gt;N&lt;/span&gt;&lt;span style=&quot;color: rgb(214, 214, 221); font-family: -apple-system, &amp;quot;system-ui&amp;quot;, &amp;quot;Hiragino Kaku Gothic Pro&amp;quot;, sans-serif; font-size: 13px; font-weight: 700; background-color: rgb(24, 24, 24);&quot;&gt;a&lt;/span&gt;&lt;span style=&quot;color: rgb(214, 214, 221); font-family: -apple-system, &amp;quot;system-ui&amp;quot;, &amp;quot;Hiragino Kaku Gothic Pro&amp;quot;, sans-serif; font-size: 13px; font-weight: 700; background-color: rgb(24, 24, 24);&quot;&gt;m&lt;/span&gt;&lt;span style=&quot;color: rgb(214, 214, 221); font-family: -apple-system, &amp;quot;system-ui&amp;quot;, &amp;quot;Hiragino Kaku Gothic Pro&amp;quot;, sans-serif; font-size: 13px; font-weight: 700; background-color: rgb(24, 24, 24);&quot;&gt;e&lt;/span&gt;" style="text;strokeColor=none;fillColor=none;align=left;verticalAlign=middle;spacingLeft=4;spacingRight=4;overflow=hidden;points=[[0,0.5],[1,0.5]];portConstraint=eastwest;rotatable=0;whiteSpace=wrap;html=1;" parent="36" vertex="1">
                    <mxGeometry y="60" width="140" height="30" as="geometry"/>
                </mxCell>
                <mxCell id="39" value="&lt;span style=&quot;font-family: monospace; font-size: 0px;&quot;&gt;&lt;font color=&quot;#ffffff&quot;&gt;%3CmxGraphModel%3E%3Croot%3E%3CmxCell%20id%3D%220%22%2F%3E%3CmxCell%20id%3D%221%22%20parent%3D%220%22%2F%3E%3CmxCell%20id%3D%222%22%20value%3D%22%26lt%3Bspan%20style%3D%26quot%3Bcolor%3A%20rgb(214%2C%20214%2C%20221)%3B%20font-family%3A%20-apple-system%2C%20%26amp%3Bquot%3Bsystem-ui%26amp%3Bquot%3B%2C%20%26amp%3Bquot%3BHiragino%20Kaku%20Gothic%20Pro%26amp%3Bquot%3B%2C%20sans-serif%3B%20font-size%3A%2013px%3B%20font-weight%3A%20700%3B%20background-color%3A%20rgb(24%2C%2024%2C%2024)%3B%26quot%3B%26gt%3BR%26lt%3B%2Fspan%26gt%3B%26lt%3Bspan%20style%3D%26quot%3Bcolor%3A%20rgb(214%2C%20214%2C%20221)%3B%20font-family%3A%20-apple-system%2C%20%26amp%3Bquot%3Bsystem-ui%26amp%3Bquot%3B%2C%20%26amp%3Bquot%3BHiragino%20Kaku%20Gothic%20Pro%26amp%3Bquot%3B%2C%20sans-serif%3B%20font-size%3A%2013px%3B%20font-weight%3A%20700%3B%20background-color%3A%20rgb(24%2C%2024%2C%2024)%3B%26quot%3B%26gt%3Bo%26lt%3B%2Fspan%26gt%3B%26lt%3Bspan%20style%3D%26quot%3Bcolor%3A%20rgb(214%2C%20214%2C%20221)%3B%20font-family%3A%20-apple-system%2C%20%26amp%3Bquot%3Bsystem-ui%26amp%3Bquot%3B%2C%20%26amp%3Bquot%3BHiragino%20Kaku%20Gothic%20Pro%26amp%3Bquot%3B%2C%20sans-serif%3B%20font-size%3A%2013px%3B%20font-weight%3A%20700%3B%20background-color%3A%20rgb(24%2C%2024%2C%2024)%3B%26quot%3B%26gt%3Bo%26lt%3B%2Fspan%26gt%3B%26lt%3Bspan%20style%3D%26quot%3Bcolor%3A%20rgb(214%2C%20214%2C%20221)%3B%20font-family%3A%20-apple-system%2C%20%26amp%3Bquot%3Bsystem-ui%26amp%3Bquot%3B%2C%20%26amp%3Bquot%3BHiragino%20Kaku%20Gothic%20Pro%26amp%3Bquot%3B%2C%20sans-serif%3B%20font-size%3A%2013px%3B%20font-weight%3A%20700%3B%20background-color%3A%20rgb(24%2C%2024%2C%2024)%3B%26quot%3B%26gt%3Bm%26lt%3B%2Fspan%26gt%3B%26lt%3Bspan%20style%3D%26quot%3Bcolor%3A%20rgb(214%2C%20214%2C%20221)%3B%20font-family%3A%20-apple-system%2C%20%26amp%3Bquot%3Bsystem-ui%26amp%3Bquot%3B%2C%20%26amp%3Bquot%3BHiragino%20Kaku%20Gothic%20Pro%26amp%3Bquot%3B%2C%20sans-serif%3B%20font-size%3A%2013px%3B%20font-weight%3A%20700%3B%20background-color%3A%20rgb(24%2C%2024%2C%2024)%3B%26quot%3B%26gt%3BN%26lt%3B%2Fspan%26gt%3B%26lt%3Bspan%20style%3D%26quot%3Bcolor%3A%20rgb(214%2C%20214%2C%20221)%3B%20font-family%3A%20-apple-system%2C%20%26amp%3Bquot%3Bsystem-ui%26amp%3Bquot%3B%2C%20%26amp%3Bquot%3BHiragino%20Kaku%20Gothic%20Pro%26amp%3Bquot%3B%2C%20sans-serif%3B%20font-size%3A%2013px%3B%20font-weight%3A%20700%3B%20background-color%3A%20rgb(24%2C%2024%2C%2024)%3B%26quot%3B%26gt%3Ba%26lt%3B%2Fspan%26gt%3B%26lt%3Bspan%20style%3D%26quot%3Bcolor%3A%20rgb(214%2C%20214%2C%20221)%3B%20font-family%3A%20-apple-system%2C%20%26amp%3Bquot%3Bsystem-ui%26amp%3Bquot%3B%2C%20%26amp%3Bquot%3BHiragino%20Kaku%20Gothic%20Pro%26amp%3Bquot%3B%2C%20sans-serif%3B%20font-size%3A%2013px%3B%20font-weight%3A%20700%3B%20background-color%3A%20rgb(24%2C%2024%2C%2024)%3B%26quot%3B%26gt%3Bm%26lt%3B%2Fspan%26gt%3B%26lt%3Bspan%20style%3D%26quot%3Bcolor%3A%20rgb(214%2C%20214%2C%20221)%3B%20font-family%3A%20-apple-system%2C%20%26amp%3Bquot%3Bsystem-ui%26amp%3Bquot%3B%2C%20%26amp%3Bquot%3BHiragino%20Kaku%20Gothic%20Pro%26amp%3Bquot%3B%2C%20sans-serif%3B%20font-size%3A%2013px%3B%20font-weight%3A%20700%3B%20background-color%3A%20rgb(24%2C%2024%2C%2024)%3B%26quot%3B%26gt%3Be%26lt%3B%2Fspan%26gt%3B%22%20style%3D%22text%3BstrokeColor%3Dnone%3BfillColor%3Dnone%3Balign%3Dleft%3BverticalAlign%3Dmiddle%3BspacingLeft%3D4%3BspacingRight%3D4%3Boverflow%3Dhidden%3Bpoints%3D%5B%5B0%2C0.5%5D%2C%5B1%2C0.5%5D%5D%3BportConstraint%3Deastwest%3Brotatable%3D0%3BwhiteSpace%3Dwrap%3Bhtml%3D1%3B%22%20vertex%3D%221%22%20parent%3D%221%22%3E%3CmxGeometry%20x%3D%22344%22%20y%3D%22130%22%20width%3D%22140%22%20height%3D%2230%22%20as%3D%22geometry%22%2F%3E%3C%2FmxCell%3E%3C%2Froot%3E%3C%2FmxGraphModel%3E&lt;/font&gt;&lt;/span&gt;" style="text;strokeColor=none;fillColor=none;align=left;verticalAlign=middle;spacingLeft=4;spacingRight=4;overflow=hidden;points=[[0,0.5],[1,0.5]];portConstraint=eastwest;rotatable=0;whiteSpace=wrap;html=1;" parent="36" vertex="1">
                    <mxGeometry y="90" width="140" height="30" as="geometry"/>
                </mxCell>
                <mxCell id="40" value="&lt;h3 style=&quot;margin-top: 0px; margin-bottom: 0px; color: rgb(214, 214, 221); font-family: -apple-system, &amp;quot;system-ui&amp;quot;, &amp;quot;Hiragino Kaku Gothic Pro&amp;quot;, sans-serif; text-align: start; background-color: rgb(24, 24, 24);&quot;&gt;&lt;span style=&quot;font-size: 13px;&quot;&gt;F&lt;/span&gt;&lt;span style=&quot;font-size: 13px;&quot;&gt;i&lt;/span&gt;&lt;span style=&quot;font-size: 13px;&quot;&gt;l&lt;/span&gt;&lt;span style=&quot;font-size: 13px;&quot;&gt;es&lt;/span&gt;&lt;br&gt;&lt;/h3&gt;" style="swimlane;fontStyle=0;childLayout=stackLayout;horizontal=1;startSize=30;horizontalStack=0;resizeParent=1;resizeParentMax=0;resizeLast=0;collapsible=1;marginBottom=0;whiteSpace=wrap;html=1;" parent="1" vertex="1">
                    <mxGeometry x="500" y="70" width="140" height="180" as="geometry"/>
                </mxCell>
                <mxCell id="41" value="&lt;span style=&quot;color: rgb(214, 214, 221); font-family: -apple-system, &amp;quot;system-ui&amp;quot;, &amp;quot;Hiragino Kaku Gothic Pro&amp;quot;, sans-serif; font-size: 13px; font-style: normal; font-variant-ligatures: normal; font-variant-caps: normal; font-weight: 700; letter-spacing: normal; orphans: 2; text-align: left; text-indent: 0px; text-transform: none; widows: 2; word-spacing: 0px; -webkit-text-stroke-width: 0px; background-color: rgb(24, 24, 24); text-decoration-thickness: initial; text-decoration-style: initial; text-decoration-color: initial;&quot;&gt;FileID(pk)&lt;/span&gt;" style="text;strokeColor=none;fillColor=none;align=left;verticalAlign=middle;spacingLeft=4;spacingRight=4;overflow=hidden;points=[[0,0.5],[1,0.5]];portConstraint=eastwest;rotatable=0;whiteSpace=wrap;html=1;" parent="40" vertex="1">
                    <mxGeometry y="30" width="140" height="30" as="geometry"/>
                </mxCell>
                <mxCell id="42" value="&lt;span style=&quot;color: rgb(214, 214, 221); font-family: -apple-system, &amp;quot;system-ui&amp;quot;, &amp;quot;Hiragino Kaku Gothic Pro&amp;quot;, sans-serif; font-size: 13px; font-weight: 700; background-color: rgb(24, 24, 24);&quot;&gt;F&lt;/span&gt;&lt;span style=&quot;color: rgb(214, 214, 221); font-family: -apple-system, &amp;quot;system-ui&amp;quot;, &amp;quot;Hiragino Kaku Gothic Pro&amp;quot;, sans-serif; font-size: 13px; font-weight: 700; background-color: rgb(24, 24, 24);&quot;&gt;i&lt;/span&gt;&lt;span style=&quot;color: rgb(214, 214, 221); font-family: -apple-system, &amp;quot;system-ui&amp;quot;, &amp;quot;Hiragino Kaku Gothic Pro&amp;quot;, sans-serif; font-size: 13px; font-weight: 700; background-color: rgb(24, 24, 24);&quot;&gt;l&lt;/span&gt;&lt;span style=&quot;color: rgb(214, 214, 221); font-family: -apple-system, &amp;quot;system-ui&amp;quot;, &amp;quot;Hiragino Kaku Gothic Pro&amp;quot;, sans-serif; font-size: 13px; font-weight: 700; background-color: rgb(24, 24, 24);&quot;&gt;e&lt;/span&gt;&lt;span style=&quot;color: rgb(214, 214, 221); font-family: -apple-system, &amp;quot;system-ui&amp;quot;, &amp;quot;Hiragino Kaku Gothic Pro&amp;quot;, sans-serif; font-size: 13px; font-weight: 700; background-color: rgb(24, 24, 24);&quot;&gt;N&lt;/span&gt;&lt;span style=&quot;color: rgb(214, 214, 221); font-family: -apple-system, &amp;quot;system-ui&amp;quot;, &amp;quot;Hiragino Kaku Gothic Pro&amp;quot;, sans-serif; font-size: 13px; font-weight: 700; background-color: rgb(24, 24, 24);&quot;&gt;a&lt;/span&gt;&lt;span style=&quot;color: rgb(214, 214, 221); font-family: -apple-system, &amp;quot;system-ui&amp;quot;, &amp;quot;Hiragino Kaku Gothic Pro&amp;quot;, sans-serif; font-size: 13px; font-weight: 700; background-color: rgb(24, 24, 24);&quot;&gt;m&lt;/span&gt;&lt;span style=&quot;color: rgb(214, 214, 221); font-family: -apple-system, &amp;quot;system-ui&amp;quot;, &amp;quot;Hiragino Kaku Gothic Pro&amp;quot;, sans-serif; font-size: 13px; font-weight: 700; background-color: rgb(24, 24, 24);&quot;&gt;e&lt;/span&gt;" style="text;strokeColor=none;fillColor=none;align=left;verticalAlign=middle;spacingLeft=4;spacingRight=4;overflow=hidden;points=[[0,0.5],[1,0.5]];portConstraint=eastwest;rotatable=0;whiteSpace=wrap;html=1;" parent="40" vertex="1">
                    <mxGeometry y="60" width="140" height="30" as="geometry"/>
                </mxCell>
                <mxCell id="43" value="&lt;meta charset=&quot;utf-8&quot;&gt;&lt;span style=&quot;color: rgb(214, 214, 221); font-family: -apple-system, &amp;quot;system-ui&amp;quot;, &amp;quot;Hiragino Kaku Gothic Pro&amp;quot;, sans-serif; font-size: 13px; font-style: normal; font-variant-ligatures: normal; font-variant-caps: normal; font-weight: 700; letter-spacing: normal; orphans: 2; text-align: left; text-indent: 0px; text-transform: none; widows: 2; word-spacing: 0px; -webkit-text-stroke-width: 0px; background-color: rgb(24, 24, 24); text-decoration-thickness: initial; text-decoration-style: initial; text-decoration-color: initial;&quot;&gt;F&lt;/span&gt;&lt;span style=&quot;color: rgb(214, 214, 221); font-family: -apple-system, &amp;quot;system-ui&amp;quot;, &amp;quot;Hiragino Kaku Gothic Pro&amp;quot;, sans-serif; font-size: 13px; font-style: normal; font-variant-ligatures: normal; font-variant-caps: normal; font-weight: 700; letter-spacing: normal; orphans: 2; text-align: left; text-indent: 0px; text-transform: none; widows: 2; word-spacing: 0px; -webkit-text-stroke-width: 0px; background-color: rgb(24, 24, 24); text-decoration-thickness: initial; text-decoration-style: initial; text-decoration-color: initial;&quot;&gt;i&lt;/span&gt;&lt;span style=&quot;color: rgb(214, 214, 221); font-family: -apple-system, &amp;quot;system-ui&amp;quot;, &amp;quot;Hiragino Kaku Gothic Pro&amp;quot;, sans-serif; font-size: 13px; font-style: normal; font-variant-ligatures: normal; font-variant-caps: normal; font-weight: 700; letter-spacing: normal; orphans: 2; text-align: left; text-indent: 0px; text-transform: none; widows: 2; word-spacing: 0px; -webkit-text-stroke-width: 0px; background-color: rgb(24, 24, 24); text-decoration-thickness: initial; text-decoration-style: initial; text-decoration-color: initial;&quot;&gt;l&lt;/span&gt;&lt;span style=&quot;color: rgb(214, 214, 221); font-family: -apple-system, &amp;quot;system-ui&amp;quot;, &amp;quot;Hiragino Kaku Gothic Pro&amp;quot;, sans-serif; font-size: 13px; font-style: normal; font-variant-ligatures: normal; font-variant-caps: normal; font-weight: 700; letter-spacing: normal; orphans: 2; text-align: left; text-indent: 0px; text-transform: none; widows: 2; word-spacing: 0px; -webkit-text-stroke-width: 0px; background-color: rgb(24, 24, 24); text-decoration-thickness: initial; text-decoration-style: initial; text-decoration-color: initial;&quot;&gt;e&lt;/span&gt;&lt;span style=&quot;color: rgb(214, 214, 221); font-family: -apple-system, &amp;quot;system-ui&amp;quot;, &amp;quot;Hiragino Kaku Gothic Pro&amp;quot;, sans-serif; font-size: 13px; font-style: normal; font-variant-ligatures: normal; font-variant-caps: normal; font-weight: 700; letter-spacing: normal; orphans: 2; text-align: left; text-indent: 0px; text-transform: none; widows: 2; word-spacing: 0px; -webkit-text-stroke-width: 0px; background-color: rgb(24, 24, 24); text-decoration-thickness: initial; text-decoration-style: initial; text-decoration-color: initial;&quot;&gt;S&lt;/span&gt;&lt;span style=&quot;color: rgb(214, 214, 221); font-family: -apple-system, &amp;quot;system-ui&amp;quot;, &amp;quot;Hiragino Kaku Gothic Pro&amp;quot;, sans-serif; font-size: 13px; font-style: normal; font-variant-ligatures: normal; font-variant-caps: normal; font-weight: 700; letter-spacing: normal; orphans: 2; text-align: left; text-indent: 0px; text-transform: none; widows: 2; word-spacing: 0px; -webkit-text-stroke-width: 0px; background-color: rgb(24, 24, 24); text-decoration-thickness: initial; text-decoration-style: initial; text-decoration-color: initial;&quot;&gt;i&lt;/span&gt;&lt;span style=&quot;color: rgb(214, 214, 221); font-family: -apple-system, &amp;quot;system-ui&amp;quot;, &amp;quot;Hiragino Kaku Gothic Pro&amp;quot;, sans-serif; font-size: 13px; font-style: normal; font-variant-ligatures: normal; font-variant-caps: normal; font-weight: 700; letter-spacing: normal; orphans: 2; text-align: left; text-indent: 0px; text-transform: none; widows: 2; word-spacing: 0px; -webkit-text-stroke-width: 0px; background-color: rgb(24, 24, 24); text-decoration-thickness: initial; text-decoration-style: initial; text-decoration-color: initial;&quot;&gt;z&lt;/span&gt;&lt;span style=&quot;color: rgb(214, 214, 221); font-family: -apple-system, &amp;quot;system-ui&amp;quot;, &amp;quot;Hiragino Kaku Gothic Pro&amp;quot;, sans-serif; font-size: 13px; font-style: normal; font-variant-ligatures: normal; font-variant-caps: normal; font-weight: 700; letter-spacing: normal; orphans: 2; text-align: left; text-indent: 0px; text-transform: none; widows: 2; word-spacing: 0px; -webkit-text-stroke-width: 0px; background-color: rgb(24, 24, 24); text-decoration-thickness: initial; text-decoration-style: initial; text-decoration-color: initial;&quot;&gt;e&lt;/span&gt;" style="text;strokeColor=none;fillColor=none;align=left;verticalAlign=middle;spacingLeft=4;spacingRight=4;overflow=hidden;points=[[0,0.5],[1,0.5]];portConstraint=eastwest;rotatable=0;whiteSpace=wrap;html=1;" parent="40" vertex="1">
                    <mxGeometry y="90" width="140" height="30" as="geometry"/>
                </mxCell>
                <mxCell id="45" value="&lt;span style=&quot;color: rgb(214, 214, 221); font-family: -apple-system, &amp;quot;system-ui&amp;quot;, &amp;quot;Hiragino Kaku Gothic Pro&amp;quot;, sans-serif; font-size: 13px; font-weight: 700; background-color: rgb(24, 24, 24);&quot;&gt;U&lt;/span&gt;&lt;span style=&quot;color: rgb(214, 214, 221); font-family: -apple-system, &amp;quot;system-ui&amp;quot;, &amp;quot;Hiragino Kaku Gothic Pro&amp;quot;, sans-serif; font-size: 13px; font-weight: 700; background-color: rgb(24, 24, 24);&quot;&gt;s&lt;/span&gt;&lt;span style=&quot;color: rgb(214, 214, 221); font-family: -apple-system, &amp;quot;system-ui&amp;quot;, &amp;quot;Hiragino Kaku Gothic Pro&amp;quot;, sans-serif; font-size: 13px; font-weight: 700; background-color: rgb(24, 24, 24);&quot;&gt;e&lt;/span&gt;&lt;span style=&quot;color: rgb(214, 214, 221); font-family: -apple-system, &amp;quot;system-ui&amp;quot;, &amp;quot;Hiragino Kaku Gothic Pro&amp;quot;, sans-serif; font-size: 13px; font-weight: 700; background-color: rgb(24, 24, 24);&quot;&gt;r&lt;/span&gt;&lt;span style=&quot;color: rgb(214, 214, 221); font-family: -apple-system, &amp;quot;system-ui&amp;quot;, &amp;quot;Hiragino Kaku Gothic Pro&amp;quot;, sans-serif; font-size: 13px; font-weight: 700; background-color: rgb(24, 24, 24);&quot;&gt;I&lt;/span&gt;&lt;span style=&quot;color: rgb(214, 214, 221); font-family: -apple-system, &amp;quot;system-ui&amp;quot;, &amp;quot;Hiragino Kaku Gothic Pro&amp;quot;, sans-serif; font-size: 13px; font-weight: 700; background-color: rgb(24, 24, 24);&quot;&gt;D(F)&lt;/span&gt;" style="text;strokeColor=none;fillColor=none;align=left;verticalAlign=middle;spacingLeft=4;spacingRight=4;overflow=hidden;points=[[0,0.5],[1,0.5]];portConstraint=eastwest;rotatable=0;whiteSpace=wrap;html=1;" parent="40" vertex="1">
                    <mxGeometry y="120" width="140" height="30" as="geometry"/>
                </mxCell>
                <mxCell id="44" value="&lt;span style=&quot;color: rgb(214, 214, 221); font-family: -apple-system, &amp;quot;system-ui&amp;quot;, &amp;quot;Hiragino Kaku Gothic Pro&amp;quot;, sans-serif; font-size: 13px; font-weight: 700; background-color: rgb(24, 24, 24);&quot;&gt;R&lt;/span&gt;&lt;span style=&quot;color: rgb(214, 214, 221); font-family: -apple-system, &amp;quot;system-ui&amp;quot;, &amp;quot;Hiragino Kaku Gothic Pro&amp;quot;, sans-serif; font-size: 13px; font-weight: 700; background-color: rgb(24, 24, 24);&quot;&gt;o&lt;/span&gt;&lt;span style=&quot;color: rgb(214, 214, 221); font-family: -apple-system, &amp;quot;system-ui&amp;quot;, &amp;quot;Hiragino Kaku Gothic Pro&amp;quot;, sans-serif; font-size: 13px; font-weight: 700; background-color: rgb(24, 24, 24);&quot;&gt;o&lt;/span&gt;&lt;span style=&quot;color: rgb(214, 214, 221); font-family: -apple-system, &amp;quot;system-ui&amp;quot;, &amp;quot;Hiragino Kaku Gothic Pro&amp;quot;, sans-serif; font-size: 13px; font-weight: 700; background-color: rgb(24, 24, 24);&quot;&gt;m&lt;/span&gt;&lt;span style=&quot;color: rgb(214, 214, 221); font-family: -apple-system, &amp;quot;system-ui&amp;quot;, &amp;quot;Hiragino Kaku Gothic Pro&amp;quot;, sans-serif; font-size: 13px; font-weight: 700; background-color: rgb(24, 24, 24);&quot;&gt;I&lt;/span&gt;&lt;span style=&quot;color: rgb(214, 214, 221); font-family: -apple-system, &amp;quot;system-ui&amp;quot;, &amp;quot;Hiragino Kaku Gothic Pro&amp;quot;, sans-serif; font-size: 13px; font-weight: 700; background-color: rgb(24, 24, 24);&quot;&gt;D(F)&lt;/span&gt;" style="text;strokeColor=none;fillColor=none;align=left;verticalAlign=middle;spacingLeft=4;spacingRight=4;overflow=hidden;points=[[0,0.5],[1,0.5]];portConstraint=eastwest;rotatable=0;whiteSpace=wrap;html=1;" parent="40" vertex="1">
                    <mxGeometry y="150" width="140" height="30" as="geometry"/>
                </mxCell>
            </root>
        </mxGraphModel>
    </diagram>
</mxfile>